<svg xmlns="http://www.w3.org/2000/svg" xmlns:xlink="http://www.w3.org/1999/xlink" viewBox="0 0 800 800"><defs><style>.cls-1{fill:none;}.cls-2,.cls-3{fill:#662f5a;}.cls-2{fill-rule:evenodd;}.cls-4{isolation:isolate;}.cls-5{fill:#fff;}.cls-6{opacity:0.2;mix-blend-mode:multiply;fill:url(#New_Pattern_Swatch_1);}</style><pattern id="New_Pattern_Swatch_1" data-name="New Pattern Swatch 1" width="90.23" height="90.23" patternUnits="userSpaceOnUse" viewBox="0 0 90.23 90.23"><rect class="cls-1" width="90.23" height="90.23"/><path class="cls-2" d="M47.88,19.4a1.26,1.26,0,0,0-.18-.25L45,16.48h0l-2.66,2.67a1.28,1.28,0,0,0-.18.25A1.16,1.16,0,0,0,42.73,21a1.2,1.2,0,0,0,1.12,0,1.19,1.19,0,0,0,2.38,0,1.2,1.2,0,0,0,1.12,0A1.16,1.16,0,0,0,47.88,19.4Z"/><path class="cls-2" d="M38.39,11a1.28,1.28,0,0,0,1,.71c.82.09,1.29-.65,1.84-1.2.72-.71,2.09-.86,3.32,1l0,0,.12-.1c-.44-1.66-2.61-4-5-3.27A2.1,2.1,0,0,0,38.39,11Zm6.5.34.15,0,.16,0a7.75,7.75,0,0,1,1.13-2.26A2,2,0,0,0,46,6.73a1.41,1.41,0,0,0-1.94,0,2,2,0,0,0-.31,2.36A7.8,7.8,0,0,1,44.88,11.35Zm.62.2,0,0c1.23-1.87,2.6-1.73,3.32-1,.55.55,1,1.29,1.84,1.2a1.28,1.28,0,0,0,1-.71,2.1,2.1,0,0,0-1.35-2.83c-2.34-.72-4.51,1.61-5,3.27Zm-.47,0c-.37,0-.68.47-.68,1s.3,1,.68,1,.68-.47.68-1S45.41,11.54,45,11.54Z"/><path class="cls-2" d="M18.85,42.44a1.07,1.07,0,0,0-.25.18l-2.68,2.66h0l2.68,2.66a1.13,1.13,0,0,0,.25.18,1.16,1.16,0,0,0,1.56-.53,1.22,1.22,0,0,0,0-1.12,1.19,1.19,0,0,0,0-2.37,1.21,1.21,0,0,0,0-1.12A1.15,1.15,0,0,0,18.85,42.44Z"/><path class="cls-2" d="M10.44,51.93a1.27,1.27,0,0,0,.71-1c.09-.82-.65-1.29-1.2-1.84-.71-.72-.86-2.09,1-3.32l0,0-.1-.12c-1.66.44-4,2.61-3.27,5A2.09,2.09,0,0,0,10.44,51.93Zm.35-6.5a.55.55,0,0,1,0-.15.62.62,0,0,1,0-.16A7.65,7.65,0,0,1,8.53,44a2,2,0,0,0-2.36.32,1.41,1.41,0,0,0,0,1.94,2,2,0,0,0,2.36.32A7.78,7.78,0,0,1,10.79,45.43Zm.2-.62,0,0c-1.87-1.23-1.73-2.6-1-3.32.54-.55,1.29-1,1.2-1.84a1.28,1.28,0,0,0-.71-1A2.1,2.1,0,0,0,7.62,40c-.72,2.34,1.62,4.51,3.27,5A.56.56,0,0,1,11,44.81Zm0,.47c0,.37.47.68,1,.68s1-.3,1-.68-.47-.68-1-.68S11,44.91,11,45.28Z"/><path class="cls-2" d="M41.88,71.48a1.17,1.17,0,0,0,.18.26l2.66,2.67h0l2.66-2.67a1.18,1.18,0,0,0,.18-.26A1.16,1.16,0,0,0,47,69.91a1.21,1.21,0,0,0-1.12,0,1.19,1.19,0,0,0-2.38,0,1.21,1.21,0,0,0-1.12,0A1.15,1.15,0,0,0,41.88,71.48Z"/><path class="cls-2" d="M51.37,79.88a1.27,1.27,0,0,0-1-.71c-.82-.09-1.29.65-1.84,1.2-.72.71-2.09.86-3.32-1l0,0-.12.1c.44,1.66,2.61,4,5,3.27A2.1,2.1,0,0,0,51.37,79.88Zm-6.5-.34-.15,0-.16,0a7.83,7.83,0,0,1-1.13,2.26,2,2,0,0,0,.32,2.36,1.41,1.41,0,0,0,1.94,0A2,2,0,0,0,46,81.8,7.83,7.83,0,0,1,44.88,79.53Zm-.62-.2,0,0c-1.23,1.87-2.6,1.73-3.32,1-.55-.54-1-1.29-1.84-1.2a1.28,1.28,0,0,0-1,.71,2.1,2.1,0,0,0,1.35,2.83c2.34.72,4.51-1.62,5-3.27Zm.47,0c.37,0,.67-.47.67-1s-.3-1-.67-1-.68.47-.68,1S44.35,79.34,44.72,79.34Z"/><path class="cls-2" d="M70.91,48.44a1.25,1.25,0,0,0,.26-.18l2.67-2.66h0l-2.67-2.66a1.23,1.23,0,0,0-.26-.18,1.16,1.16,0,0,0-1.56.53,1.21,1.21,0,0,0,0,1.12,1.19,1.19,0,0,0,0,2.38,1.21,1.21,0,0,0,0,1.13A1.15,1.15,0,0,0,70.91,48.44Z"/><path class="cls-2" d="M79.32,38.95a1.28,1.28,0,0,0-.71,1c-.09.82.65,1.29,1.2,1.84.71.72.86,2.09-1,3.32l0,0a.51.51,0,0,1,.1.12c1.66-.44,4-2.61,3.27-5A2.1,2.1,0,0,0,79.32,38.95ZM79,45.44a.53.53,0,0,1,0,.31,7.71,7.71,0,0,1,2.26,1.13,2,2,0,0,0,2.36-.32,1.41,1.41,0,0,0,0-1.94,2,2,0,0,0-2.36-.32A7.74,7.74,0,0,1,79,45.44Zm-.2.62,0,0c1.87,1.23,1.73,2.6,1,3.32-.54.55-1.29,1-1.2,1.84a1.28,1.28,0,0,0,.71,1,2.1,2.1,0,0,0,2.83-1.35c.73-2.34-1.61-4.51-3.27-5A.6.6,0,0,1,78.77,46.07Zm0-.47c0-.37-.47-.68-1-.68s-1,.3-1,.68.47.68,1,.68S78.78,46,78.78,45.6Z"/><path class="cls-3" d="M69.35,20.26s2.63-4.19-.21-7c-2.52-2.52-4.12-.29-4.12-.29a1.91,1.91,0,0,0,0,2.81c1.1,1.1,1.88.18,1.88.18a.66.66,0,0,0,0-1c-.5-.5-1,.36-1,.36a1,1,0,0,1,.36-1c.53-.53,1,.11,1.14.28s.82.89-.21,1.92-2.34.14-2.7-.21-1.92-1.85.21-4,4.29-.18,5,.5S72.73,16.67,69.35,20.26Z"/><path class="cls-3" d="M67.54,22.21s-.57-.36-.11-1.1a3.58,3.58,0,0,0,.46-1.67s1,1.35.53,2.09S67.79,22.25,67.54,22.21Z"/><path class="cls-3" d="M63.35,26.69l7.31-7.32s2-2.31,2.1-2.88,1.37-.26,1.37-.26.31,1.3-.26,1.37S71,19.7,71,19.7L63.68,27Z"/><path class="cls-3" d="M70.11,21s4.19-2.63,7,.21c2.52,2.52.29,4.12.29,4.12a1.91,1.91,0,0,1-2.81,0c-1.1-1.1-.18-1.88-.18-1.88a.66.66,0,0,1,1,0c.5.5-.36,1-.36,1a1,1,0,0,0,1-.36c.53-.53-.11-1-.29-1.14s-.89-.81-1.92.21-.14,2.34.21,2.7,1.85,1.92,4-.21.18-4.3-.5-5S73.69,17.64,70.11,21Z"/><path class="cls-3" d="M68.15,22.82s.36.57,1.1.11a3.57,3.57,0,0,1,1.67-.46s-1.35-1-2.09-.53S68.12,22.57,68.15,22.82Z"/><path class="cls-2" d="M89.22,1.14c0,.21.06.47.08.68a2.49,2.49,0,0,1-.59,2.07,2.63,2.63,0,0,1-1,.58A5.27,5.27,0,0,0,84.91,6l-.14.13.32.33.15-.11a5.25,5.25,0,0,1,1.8-1,2.61,2.61,0,0,1,1.57,0,2.45,2.45,0,0,1,1.56,1.78,2,2,0,0,1-.65,2,1.8,1.8,0,0,1-1,.41,2.69,2.69,0,0,1-1.42-.3s.07-.05.09-.07a2.43,2.43,0,0,0,.51-.45,1.41,1.41,0,0,0,.41-1.17,1.2,1.2,0,0,0-1.13-1,1.77,1.77,0,0,0-1.15.29L85.63,7l.38.38a.37.37,0,0,1,.11.18.15.15,0,0,1,0,.14l-.69.69s-.1.12-.17.13a.15.15,0,0,1-.11,0c-.18-.15-.52-.5-.52-.5a1.41,1.41,0,0,0-.31.62.89.89,0,0,0,0,.42.87.87,0,0,0,1,.59,1.22,1.22,0,0,0,.71-.49s0,0,0,0a2,2,0,0,1-.26,1.55,1.3,1.3,0,0,1-.4.39,1.66,1.66,0,0,1-1.26.14,1.59,1.59,0,0,1-1-1,2.3,2.3,0,0,1,0-1.29,3.91,3.91,0,0,1,.83-1.44l-.33-.33a3.75,3.75,0,0,0-.95,1.32l0,.1a2.94,2.94,0,0,1-1,1.66,2.14,2.14,0,0,1-1.74.08,2.15,2.15,0,0,1,.08-1.74,2.93,2.93,0,0,1,1.66-1l.1,0a3.84,3.84,0,0,0,1.32-.95l-.33-.33a3.92,3.92,0,0,1-1.44.83,2.27,2.27,0,0,1-1.29,0,1.58,1.58,0,0,1-1-1,1.66,1.66,0,0,1,.14-1.26,1.33,1.33,0,0,1,.39-.4,2,2,0,0,1,1.56-.26s0,0,0,0a1.22,1.22,0,0,0-.49.71.87.87,0,0,0,.59,1,.93.93,0,0,0,.42,0,1.39,1.39,0,0,0,.61-.32s-.34-.33-.49-.51a.15.15,0,0,1,0-.11c0-.06.09-.13.13-.17l.7-.69a.16.16,0,0,1,.14,0,.36.36,0,0,1,.18.11c.11.1.38.38.38.38l.13-.17a1.78,1.78,0,0,0,.29-1.15,1.21,1.21,0,0,0-1-1.13,1.41,1.41,0,0,0-1.17.41,2.5,2.5,0,0,0-.45.51s-.06.11-.07.09a2.67,2.67,0,0,1-.3-1.42,1.79,1.79,0,0,1,.41-1,2,2,0,0,1,2-.66A2.45,2.45,0,0,1,85,1.75a2.6,2.6,0,0,1,0,1.57,5.22,5.22,0,0,1-1,1.8l-.12.15.33.33.13-.14a5.27,5.27,0,0,0,1.51-2.77,2.57,2.57,0,0,1,.58-1,2.5,2.5,0,0,1,2.07-.59C88.75,1.08,89,1.13,89.22,1.14Z"/><path class="cls-3" d="M58.06,27.95C54.33,31.68,51,39.15,51,39.15s7.47-3.35,11.2-7.08,2.32-6.44,2.32-6.44S61.79,24.21,58.06,27.95Z"/><path class="cls-3" d="M20.26,20.88s-4.19-2.63-7,.21c-2.52,2.52-.28,4.12-.28,4.12a1.91,1.91,0,0,0,2.8,0c1.1-1.1.18-1.88.18-1.88a.65.65,0,0,0-1,0c-.5.5.35,1,.35,1a1,1,0,0,1-1-.35c-.53-.53.11-1,.28-1.14s.89-.82,1.92.21.14,2.34-.21,2.7-1.85,1.92-4-.21-.18-4.29.5-5S16.67,17.51,20.26,20.88Z"/><path class="cls-3" d="M22.21,22.69s-.36.57-1.1.11a3.59,3.59,0,0,0-1.67-.46s1.35-1,2.09-.53S22.25,22.44,22.21,22.69Z"/><path class="cls-3" d="M26.69,26.88l-7.32-7.32s-2.31-2-2.87-2.09-.26-1.37-.26-1.37,1.3-.31,1.37.26,2.1,2.88,2.1,2.88L27,26.55Z"/><path class="cls-3" d="M21,20.12s-2.63-4.19.21-7c2.52-2.52,4.12-.28,4.12-.28a1.91,1.91,0,0,1,0,2.81c-1.1,1.1-1.88.18-1.88.18a.66.66,0,0,1,0-1c.5-.5,1,.36,1,.36a1,1,0,0,0-.35-1c-.53-.53-1,.11-1.14.28s-.82.89.21,1.92,2.34.14,2.7-.21,1.92-1.85-.21-4-4.3-.18-5,.5S17.64,16.54,21,20.12Z"/><path class="cls-3" d="M22.82,22.08s.57-.36.11-1.1a3.59,3.59,0,0,1-.46-1.67s-1,1.35-.53,2.09S22.57,22.11,22.82,22.08Z"/><path class="cls-2" d="M1.14,1c.21,0,.47-.06.68-.08a2.48,2.48,0,0,1,2.07.59,2.62,2.62,0,0,1,.59,1A5.27,5.27,0,0,0,6,5.32l.13.14.32-.33L6.33,5a5.29,5.29,0,0,1-1-1.8,2.61,2.61,0,0,1,0-1.56A2.46,2.46,0,0,1,7.13.06a2,2,0,0,1,2,.65,1.79,1.79,0,0,1,.41,1,2.69,2.69,0,0,1-.3,1.42s-.05-.07-.07-.09a2.39,2.39,0,0,0-.45-.51,1.41,1.41,0,0,0-1.17-.41,1.2,1.2,0,0,0-1,1.13,1.78,1.78,0,0,0,.29,1.15L7,4.6s.27-.28.38-.38a.35.35,0,0,1,.18-.12.15.15,0,0,1,.13,0l.69.7s.12.1.13.17a.15.15,0,0,1,0,.11c-.15.18-.5.51-.5.51a1.43,1.43,0,0,0,.62.31.9.9,0,0,0,1-1.06,1.22,1.22,0,0,0-.49-.71,0,0,0,0,1,0,0,2,2,0,0,1,1.55.26,1.27,1.27,0,0,1,.39.4,1.64,1.64,0,0,1,.14,1.25,1.57,1.57,0,0,1-1,1A2.28,2.28,0,0,1,8.91,7a3.87,3.87,0,0,1-1.44-.83l-.33.34a3.76,3.76,0,0,0,1.32.95l.1,0a3,3,0,0,1,1.65,1,2.14,2.14,0,0,1,.08,1.74,2.15,2.15,0,0,1-1.74-.08,2.92,2.92,0,0,1-1-1.66l0-.1A3.81,3.81,0,0,0,6.62,7l-.33.33a4,4,0,0,1,.83,1.44,2.26,2.26,0,0,1,0,1.29,1.57,1.57,0,0,1-1,1A1.65,1.65,0,0,1,4.94,11a1.29,1.29,0,0,1-.4-.39A2,2,0,0,1,4.27,9s0,0,0,0A1.23,1.23,0,0,0,5,9.49.87.87,0,0,0,6,8.9a.93.93,0,0,0,0-.42,1.42,1.42,0,0,0-.31-.62s-.33.34-.51.5a.15.15,0,0,1-.11,0c-.06,0-.13-.09-.17-.13l-.7-.69a.16.16,0,0,1,0-.14.37.37,0,0,1,.11-.18l.38-.38-.17-.13A1.8,1.8,0,0,0,3.4,6.46a1.21,1.21,0,0,0-1.13,1,1.41,1.41,0,0,0,.41,1.17,2.48,2.48,0,0,0,.51.45s.11.06.1.07a2.69,2.69,0,0,1-1.42.3A1.8,1.8,0,0,1,.85,9,2,2,0,0,1,.19,7,2.47,2.47,0,0,1,1.75,5.22a2.62,2.62,0,0,1,1.57,0,5.25,5.25,0,0,1,1.8,1l.15.12L5.59,6l-.14-.13A5.27,5.27,0,0,0,2.69,4.35a2.59,2.59,0,0,1-1-.58A2.49,2.49,0,0,1,1.06,1.7C1.08,1.49,1.13,1.22,1.14,1Z"/><path class="cls-3" d="M27.95,32.17c3.73,3.73,11.2,7.09,11.2,7.09s-3.35-7.47-7.08-11.2-6.44-2.32-6.44-2.32S24.21,28.44,27.95,32.17Z"/><path class="cls-3" d="M20.88,70s-2.63,4.19.21,7c2.52,2.52,4.12.29,4.12.29a1.91,1.91,0,0,0,0-2.81c-1.1-1.1-1.88-.18-1.88-.18a.66.66,0,0,0,0,1c.5.5,1-.35,1-.35a1,1,0,0,1-.36,1c-.53.53-1-.11-1.14-.28s-.82-.89.21-1.92,2.34-.14,2.7.21,1.92,1.85-.21,4-4.3.18-5-.5S17.51,73.56,20.88,70Z"/><path class="cls-3" d="M22.69,68s.57.36.11,1.1a3.57,3.57,0,0,0-.46,1.67s-1-1.35-.53-2.09S22.44,68,22.69,68Z"/><path class="cls-3" d="M26.88,63.55l-7.31,7.32s-2,2.31-2.1,2.88S16.1,74,16.1,74s-.31-1.3.26-1.37,2.88-2.1,2.88-2.1l7.32-7.32Z"/><path class="cls-3" d="M20.13,69.22s-4.19,2.63-7-.21c-2.52-2.52-.29-4.12-.29-4.12a1.91,1.91,0,0,1,2.8,0c1.1,1.1.18,1.88.18,1.88a.66.66,0,0,1-1,0c-.5-.5.36-1,.36-1a1,1,0,0,0-1,.36c-.53.53.11,1,.29,1.14s.89.82,1.92-.21.14-2.34-.21-2.7-1.85-1.92-4,.21-.18,4.3.5,5S16.54,72.59,20.13,69.22Z"/><path class="cls-3" d="M22.08,67.41s-.35-.57-1.1-.11a3.58,3.58,0,0,1-1.67.46s1.35,1,2.1.53S22.12,67.66,22.08,67.41Z"/><path class="cls-2" d="M1,89.09c0-.21-.06-.47-.08-.68a2.5,2.5,0,0,1,.59-2.07,2.66,2.66,0,0,1,1-.58,5.29,5.29,0,0,0,2.77-1.51l.13-.13-.32-.32L5,83.9a5.24,5.24,0,0,1-1.8,1,2.61,2.61,0,0,1-1.57,0A2.47,2.47,0,0,1,.06,83.1a2,2,0,0,1,.66-2,1.79,1.79,0,0,1,1-.41,2.69,2.69,0,0,1,1.42.3s-.07.05-.09.07a2.43,2.43,0,0,0-.51.45,1.41,1.41,0,0,0-.41,1.17,1.21,1.21,0,0,0,1.13,1,1.77,1.77,0,0,0,1.15-.29l.17-.12-.38-.38a.39.39,0,0,1-.11-.18.15.15,0,0,1,0-.14l.69-.69s.1-.12.17-.13a.14.14,0,0,1,.11,0c.18.15.51.5.51.5a1.41,1.41,0,0,0,.31-.62.89.89,0,0,0,0-.42.87.87,0,0,0-1-.59,1.22,1.22,0,0,0-.71.49,0,0,0,0,1,0,0,2,2,0,0,1,.26-1.56,1.33,1.33,0,0,1,.4-.39A1.66,1.66,0,0,1,6.06,79a1.58,1.58,0,0,1,1,1,2.28,2.28,0,0,1,0,1.29,3.9,3.9,0,0,1-.83,1.44l.33.33a3.77,3.77,0,0,0,.95-1.32l0-.1a2.93,2.93,0,0,1,1-1.66,2.14,2.14,0,0,1,1.74-.08,2.16,2.16,0,0,1-.08,1.74,2.93,2.93,0,0,1-1.66,1l-.1,0A3.82,3.82,0,0,0,7,83.62l.33.33a3.94,3.94,0,0,1,1.44-.83,2.28,2.28,0,0,1,1.29,0,1.58,1.58,0,0,1,1,1A1.67,1.67,0,0,1,11,85.3a1.28,1.28,0,0,1-.39.4A2,2,0,0,1,9,86s0,0,0,0a1.23,1.23,0,0,0,.49-.71.87.87,0,0,0-.59-1,.93.93,0,0,0-.42,0,1.42,1.42,0,0,0-.62.32s.34.33.49.51a.15.15,0,0,1,0,.11c0,.06-.09.13-.13.17l-.7.69a.16.16,0,0,1-.14,0,.36.36,0,0,1-.18-.11c-.11-.1-.38-.38-.38-.38l-.13.17a1.79,1.79,0,0,0-.29,1.16,1.21,1.21,0,0,0,1,1.13,1.4,1.4,0,0,0,1.17-.41A2.5,2.5,0,0,0,9.07,87s.06-.11.07-.09a2.67,2.67,0,0,1,.3,1.42,1.79,1.79,0,0,1-.41,1A2,2,0,0,1,7,90a2.46,2.46,0,0,1-1.78-1.56,2.6,2.6,0,0,1,0-1.57,5.2,5.2,0,0,1,1-1.8L6.31,85,6,84.64l-.13.14a5.26,5.26,0,0,0-1.51,2.77,2.6,2.6,0,0,1-.58,1,2.5,2.5,0,0,1-2.07.59C1.48,89.15,1.22,89.1,1,89.09Z"/><path class="cls-3" d="M32.17,62.28c3.73-3.73,7.08-11.2,7.08-11.2s-7.46,3.35-11.2,7.08-2.32,6.44-2.32,6.44S28.44,66,32.17,62.28Z"/><path class="cls-3" d="M70,69.35s4.19,2.63,7-.21c2.52-2.52.28-4.12.28-4.12a1.91,1.91,0,0,0-2.8,0c-1.1,1.1-.18,1.88-.18,1.88a.66.66,0,0,0,1,0c.5-.5-.36-1-.36-1a1,1,0,0,1,1,.36c.53.53-.11,1-.28,1.14s-.89.82-1.92-.21-.14-2.34.22-2.7,1.84-1.92,4,.21.18,4.3-.5,5S73.56,72.73,70,69.35Z"/><path class="cls-3" d="M68,67.54s.35-.57,1.1-.11a3.58,3.58,0,0,0,1.67.46s-1.35,1-2.1.53S68,67.79,68,67.54Z"/><path class="cls-3" d="M63.55,63.35l7.32,7.32s2.31,2,2.88,2.09.26,1.37.26,1.37-1.3.31-1.37-.26S70.53,71,70.53,71l-7.31-7.32Z"/><path class="cls-3" d="M69.22,70.11s2.63,4.19-.21,7c-2.52,2.52-4.12.28-4.12.28a1.91,1.91,0,0,1,0-2.81c1.1-1.1,1.88-.18,1.88-.18a.66.66,0,0,1,0,1c-.5.5-1-.35-1-.35a1,1,0,0,0,.35,1c.53.53,1-.11,1.14-.28s.82-.89-.21-1.92-2.34-.14-2.7.21-1.92,1.85.21,4,4.3.18,5-.5S72.59,73.69,69.22,70.11Z"/><path class="cls-3" d="M67.41,68.15s-.57.36-.11,1.1a3.59,3.59,0,0,1,.46,1.67s1-1.35.53-2.09S67.66,68.12,67.41,68.15Z"/><path class="cls-2" d="M89.09,89.22c-.21,0-.47.06-.68.08a2.49,2.49,0,0,1-2.07-.59,2.64,2.64,0,0,1-.58-1,5.29,5.29,0,0,0-1.51-2.77l-.13-.13-.32.32.11.15a5.22,5.22,0,0,1,1,1.8,2.59,2.59,0,0,1,0,1.56,2.46,2.46,0,0,1-1.77,1.56,2,2,0,0,1-2-.66,1.79,1.79,0,0,1-.41-1,2.69,2.69,0,0,1,.3-1.42s.05.07.07.09a2.34,2.34,0,0,0,.45.5,1.4,1.4,0,0,0,1.17.41,1.2,1.2,0,0,0,1-1.13,1.78,1.78,0,0,0-.29-1.16l-.12-.17s-.27.28-.38.38a.36.36,0,0,1-.18.11.14.14,0,0,1-.13,0l-.7-.7s-.12-.1-.13-.17a.16.16,0,0,1,0-.11c.15-.18.5-.51.5-.51a1.45,1.45,0,0,0-.62-.31.86.86,0,0,0-.42,0,.87.87,0,0,0-.59,1,1.23,1.23,0,0,0,.49.71,0,0,0,0,1,0,0,2,2,0,0,1-1.55-.26,1.25,1.25,0,0,1-.39-.4A1.65,1.65,0,0,1,79,84.17a1.57,1.57,0,0,1,1-1,2.26,2.26,0,0,1,1.29,0,3.83,3.83,0,0,1,1.44.83l.33-.33a3.74,3.74,0,0,0-1.32-.95l-.1,0a2.94,2.94,0,0,1-1.65-1,2.15,2.15,0,0,1-.09-1.74,2.15,2.15,0,0,1,1.74.08,2.91,2.91,0,0,1,1,1.66.76.76,0,0,0,0,.1,3.79,3.79,0,0,0,.95,1.32l.33-.33a4,4,0,0,1-.83-1.44,2.28,2.28,0,0,1,0-1.29,1.57,1.57,0,0,1,1-1,1.66,1.66,0,0,1,1.26.14,1.3,1.3,0,0,1,.4.39A2,2,0,0,1,86,81.22s0,0,0,0a1.24,1.24,0,0,0-.71-.49.87.87,0,0,0-1,.59.93.93,0,0,0,0,.42,1.42,1.42,0,0,0,.31.62s.33-.34.51-.5a.15.15,0,0,1,.11,0c.06,0,.13.09.17.13l.7.69a.16.16,0,0,1,0,.14.37.37,0,0,1-.11.18c-.1.11-.38.38-.38.38l.17.13a1.78,1.78,0,0,0,1.15.29,1.21,1.21,0,0,0,1.13-1,1.41,1.41,0,0,0-.41-1.17,2.57,2.57,0,0,0-.51-.45s-.11-.06-.09-.07a2.68,2.68,0,0,1,1.42-.3,1.81,1.81,0,0,1,1,.41,2,2,0,0,1,.66,2A2.47,2.47,0,0,1,88.48,85a2.62,2.62,0,0,1-1.57,0,5.26,5.26,0,0,1-1.8-1L85,83.92l-.32.32.14.13a5.24,5.24,0,0,0,2.77,1.51,2.64,2.64,0,0,1,1,.58,2.51,2.51,0,0,1,.59,2.07C89.15,88.75,89.1,89,89.09,89.22Z"/><path class="cls-3" d="M62.28,58.06C58.55,54.33,51.08,51,51.08,51s3.35,7.47,7.09,11.2,6.44,2.32,6.44,2.32S66,61.8,62.28,58.06Z"/><polygon class="cls-3" points="39.49 45.31 44.53 50.35 49.56 45.31 44.53 40.27 39.49 45.31"/></pattern></defs><title>background 2</title><g class="cls-4"><g id="Layer_1" data-name="Layer 1"><g id="_3" data-name="3"><rect class="cls-5" width="800" height="795"/><rect class="cls-6" width="800" height="800"/></g></g></g></svg>