<svg id="Layer_1" data-name="Layer 1" xmlns="http://www.w3.org/2000/svg" viewBox="0 0 25 25"><defs><style>.cls-1{fill:#fff;}.cls-2{fill:#e6e7e8;}</style></defs><title>background 4</title><rect class="cls-1" width="25" height="25"/><polygon class="cls-2" points="25 0.59 25 0.3 24.11 0.08 24.09 0 23.8 0 23.88 0.31 25 0.59"/><polygon class="cls-2" points="24.2 1.63 24.52 2.94 25 3.06 25 2.77 24.75 2.71 24.43 1.4 23.11 1.07 22.85 0 22.56 0 22.88 1.3 24.2 1.63"/><polygon class="cls-2" points="24.69 1.13 25 2.38 25 1.23 24.92 0.9 23.61 0.57 23.46 0 23.18 0 23.38 0.8 24.69 1.13"/><polygon class="cls-2" points="21.57 0.98 21.89 2.29 23.21 2.62 23.53 3.93 24.85 4.26 25 4.88 25 4.01 23.76 3.7 23.43 2.39 22.12 2.06 21.8 0.75 20.48 0.42 20.38 0 20.09 0 20.25 0.65 21.57 0.98"/><polygon class="cls-2" points="22.06 0.48 22.39 1.79 23.7 2.12 24.02 3.43 25 3.67 25 3.39 24.25 3.2 23.93 1.89 22.61 1.56 22.29 0.25 21.29 0 20.71 0 20.75 0.15 22.06 0.48"/><polygon class="cls-2" points="18.93 0.33 19.26 1.64 20.57 1.97 20.9 3.28 22.21 3.61 22.54 4.92 23.85 5.25 24.18 6.56 25 6.77 25 6.48 24.41 6.33 24.08 5.02 22.77 4.69 22.44 3.38 21.13 3.05 20.8 1.74 19.49 1.42 19.16 0.1 18.76 0 17.62 0 17.62 0 18.93 0.33"/><polygon class="cls-2" points="21.07 1.47 21.39 2.78 22.7 3.11 23.03 4.42 24.34 4.75 24.67 6.06 25 6.14 25 5.86 24.9 5.83 24.57 4.52 23.26 4.19 22.93 2.88 21.62 2.55 21.3 1.24 19.98 0.91 19.75 0 19.47 0 19.75 1.14 21.07 1.47"/><polygon class="cls-2" points="17.94 1.32 18.27 2.63 19.58 2.96 19.91 4.28 21.22 4.6 21.55 5.92 22.86 6.24 23.19 7.55 24.5 7.88 24.83 9.19 25 9.24 25 8.73 24.73 7.65 23.42 7.32 23.09 6.01 21.78 5.68 21.45 4.37 20.14 4.04 19.81 2.73 18.5 2.4 18.17 1.09 16.86 0.77 16.67 0 16.38 0 16.63 1 17.94 1.32"/><polygon class="cls-2" points="18.43 0.82 18.76 2.13 20.07 2.46 20.4 3.77 21.71 4.1 22.04 5.41 23.35 5.74 23.68 7.05 24.99 7.38 25 7.41 25 7.09 23.91 6.82 23.58 5.51 22.27 5.18 21.94 3.87 20.63 3.54 20.3 2.23 18.99 1.91 18.66 0.59 17.35 0.27 17.29 0 17 0 17.12 0.5 18.43 0.82"/><polygon class="cls-2" points="15.31 0.68 15.64 1.99 16.95 2.31 17.28 3.63 18.59 3.95 18.92 5.27 20.23 5.59 20.56 6.91 21.87 7.23 22.2 8.54 23.51 8.87 23.84 10.18 25 10.47 25 10.19 24.07 9.96 23.74 8.64 22.43 8.31 22.1 7 20.79 6.68 20.46 5.36 19.15 5.04 18.82 3.72 17.51 3.4 17.18 2.08 15.87 1.76 15.54 0.45 14.23 0.12 14.2 0 13.91 0 14 0.35 15.31 0.68"/><polygon class="cls-2" points="16.13 1.49 17.44 1.81 17.77 3.13 19.08 3.45 19.41 4.77 20.72 5.09 21.05 6.4 22.36 6.73 22.69 8.04 24 8.37 24.33 9.68 25 9.85 25 9.56 24.56 9.45 24.23 8.14 22.92 7.82 22.59 6.5 21.28 6.17 20.95 4.86 19.64 4.54 19.31 3.22 18 2.9 17.67 1.58 16.36 1.26 16.05 0 15.1 0 15.8 0.17 16.13 1.49"/><polygon class="cls-2" points="13.01 1.34 14.32 1.67 14.65 2.98 15.96 3.31 16.29 4.62 17.6 4.95 17.93 6.26 19.24 6.58 19.57 7.9 20.88 8.22 21.21 9.54 22.52 9.86 22.85 11.18 24.16 11.5 24.48 12.81 25 12.94 25 12.66 24.72 12.59 24.39 11.27 23.08 10.95 22.75 9.63 21.43 9.31 21.11 8 19.8 7.67 19.47 6.36 18.16 6.03 17.83 4.72 16.52 4.39 16.19 3.08 14.88 2.75 14.55 1.44 13.24 1.11 12.96 0 12.57 0 12.68 0.03 13.01 1.34"/><polygon class="cls-2" points="14.81 1.17 15.14 2.48 16.45 2.81 16.78 4.12 18.09 4.45 18.42 5.76 19.73 6.08 20.06 7.4 21.37 7.72 21.7 9.04 23.01 9.36 23.34 10.68 24.65 11 24.98 12.31 25 12.32 25 11.26 24.88 10.77 23.57 10.45 23.24 9.13 21.93 8.81 21.6 7.49 20.29 7.17 19.96 5.85 18.65 5.53 18.32 4.21 17.01 3.89 16.68 2.58 15.37 2.25 15.04 0.94 13.73 0.61 13.58 0 13.29 0 13.5 0.84 14.81 1.17"/><polygon class="cls-2" points="11.69 1.02 12.02 2.33 13.33 2.66 13.66 3.97 14.97 4.3 15.3 5.61 16.61 5.94 16.94 7.25 18.25 7.58 18.58 8.89 19.89 9.22 20.21 10.53 21.53 10.86 21.85 12.17 23.17 12.49 23.5 13.81 24.81 14.13 25 14.91 25 13.89 23.72 13.58 23.4 12.27 22.09 11.94 21.76 10.63 20.45 10.3 20.12 8.99 18.81 8.66 18.48 7.35 17.17 7.02 16.84 5.71 15.53 5.38 15.2 4.07 13.89 3.74 13.56 2.43 12.25 2.1 11.92 0.79 10.61 0.46 10.49 0 10.21 0 10.38 0.69 11.69 1.02"/><polygon class="cls-2" points="12.18 0.52 12.51 1.83 13.82 2.16 14.15 3.47 15.46 3.8 15.79 5.11 17.1 5.44 17.43 6.75 18.74 7.08 19.07 8.39 20.38 8.71 20.71 10.03 22.02 10.35 22.35 11.67 23.66 11.99 23.98 13.31 25 13.56 25 13.27 24.21 13.07 23.89 11.77 22.57 11.44 22.25 10.12 20.94 9.8 20.61 8.48 19.3 8.16 18.97 6.85 17.66 6.52 17.33 5.21 16.02 4.88 15.69 3.57 14.38 3.24 14.05 1.93 12.74 1.6 12.41 0.29 11.26 0 10.82 0 10.87 0.19 12.18 0.52"/><polygon class="cls-2" points="9.06 0.37 9.39 1.68 10.7 2.01 11.03 3.32 12.34 3.65 12.67 4.96 13.98 5.29 14.3 6.6 15.62 6.93 15.95 8.24 17.26 8.57 17.59 9.88 18.9 10.21 19.22 11.52 20.54 11.85 20.86 13.16 22.18 13.48 22.5 14.8 23.82 15.13 24.14 16.44 25 16.65 25 16.36 24.37 16.21 24.04 14.89 22.73 14.57 22.41 13.26 21.09 12.93 20.77 11.62 19.45 11.29 19.13 9.98 17.82 9.65 17.49 8.34 16.18 8.01 15.85 6.7 14.54 6.37 14.21 5.06 12.9 4.73 12.57 3.42 11.26 3.09 10.93 1.78 9.62 1.45 9.29 0.14 8.72 0 7.74 0 7.75 0.04 9.06 0.37"/><polygon class="cls-2" points="11.19 1.51 11.52 2.82 12.83 3.15 13.16 4.46 14.47 4.79 14.8 6.1 16.11 6.43 16.44 7.74 17.75 8.07 18.07 9.38 19.39 9.71 19.71 11.02 21.02 11.35 21.35 12.66 22.67 12.99 22.99 14.3 24.31 14.62 24.63 15.94 25 16.03 25 15.74 24.86 15.71 24.53 14.39 23.22 14.07 22.9 12.76 21.58 12.43 21.26 11.12 19.95 10.79 19.62 9.48 18.3 9.15 17.98 7.84 16.66 7.51 16.34 6.2 15.03 5.87 14.7 4.56 13.39 4.23 13.06 2.92 11.75 2.59 11.42 1.28 10.11 0.95 9.87 0 9.58 0 9.88 1.18 11.19 1.51"/><polygon class="cls-2" points="8.07 1.36 8.4 2.67 9.71 3 10.04 4.31 11.35 4.64 11.68 5.95 12.99 6.28 13.31 7.59 14.63 7.92 14.95 9.23 16.27 9.56 16.59 10.87 17.91 11.2 18.23 12.51 19.55 12.84 19.87 14.15 21.18 14.48 21.51 15.79 22.82 16.11 23.15 17.43 24.46 17.76 24.79 19.07 25 19.12 25 18.76 24.69 17.52 23.38 17.2 23.05 15.89 21.74 15.56 21.41 14.25 20.1 13.92 19.77 12.61 18.46 12.28 18.14 10.97 16.82 10.64 16.5 9.33 15.18 9 14.86 7.69 13.54 7.36 13.22 6.05 11.9 5.72 11.58 4.41 10.27 4.08 9.94 2.77 8.63 2.44 8.3 1.13 6.99 0.81 6.79 0 6.5 0 6.76 1.03 8.07 1.36"/><polygon class="cls-2" points="8.56 0.86 8.89 2.17 10.2 2.5 10.53 3.81 11.84 4.14 12.17 5.45 13.48 5.78 13.81 7.09 15.12 7.42 15.44 8.73 16.76 9.06 17.08 10.37 18.4 10.7 18.72 12.01 20.04 12.34 20.36 13.65 21.68 13.98 22 15.29 23.31 15.62 23.64 16.93 24.95 17.25 25 17.44 25 16.98 23.87 16.7 23.54 15.39 22.23 15.06 21.91 13.75 20.59 13.42 20.27 12.11 18.95 11.78 18.63 10.47 17.31 10.14 16.98 8.83 15.67 8.5 15.35 7.19 14.03 6.86 13.71 5.55 12.4 5.22 12.07 3.91 10.76 3.58 10.43 2.27 9.12 1.94 8.79 0.63 7.48 0.3 7.4 0 7.12 0 7.25 0.54 8.56 0.86"/><polygon class="cls-2" points="5.44 0.71 5.77 2.03 7.08 2.35 7.41 3.67 8.72 3.99 9.04 5.3 10.36 5.63 10.68 6.95 11.99 7.27 12.32 8.58 13.64 8.91 13.96 10.22 15.27 10.55 15.6 11.86 16.91 12.19 17.24 13.5 18.55 13.83 18.88 15.14 20.19 15.47 20.52 16.78 21.83 17.11 22.16 18.42 23.47 18.75 23.8 20.06 25 20.36 25 20.07 24.03 19.83 23.7 18.52 22.39 18.19 22.06 16.88 20.75 16.55 20.42 15.24 19.11 14.91 18.78 13.6 17.47 13.27 17.14 11.96 15.83 11.63 15.5 10.32 14.19 9.99 13.86 8.68 12.55 8.35 12.22 7.04 10.91 6.71 10.59 5.4 9.27 5.08 8.95 3.76 7.63 3.44 7.31 2.12 6 1.8 5.67 0.48 4.36 0.16 4.32 0 4.03 0 4.13 0.39 5.44 0.71"/><polygon class="cls-2" points="6.26 1.53 7.57 1.85 7.9 3.17 9.21 3.49 9.54 4.8 10.85 5.13 11.17 6.44 12.49 6.77 12.81 8.08 14.13 8.41 14.45 9.72 15.77 10.05 16.09 11.36 17.4 11.69 17.73 13 19.04 13.33 19.37 14.64 20.68 14.97 21.01 16.28 22.32 16.61 22.65 17.92 23.96 18.25 24.29 19.56 25 19.73 25 19.45 24.52 19.33 24.19 18.02 22.88 17.69 22.55 16.38 21.24 16.05 20.91 14.74 19.6 14.41 19.27 13.1 17.96 12.77 17.64 11.46 16.32 11.13 15.99 9.82 14.68 9.49 14.36 8.18 13.04 7.85 12.72 6.54 11.4 6.21 11.08 4.9 9.77 4.58 9.44 3.26 8.13 2.94 7.8 1.62 6.49 1.3 6.16 0 5.07 0 5.93 0.21 6.26 1.53"/><polygon class="cls-2" points="3.13 1.38 4.45 1.71 4.77 3.02 6.09 3.35 6.41 4.66 7.73 4.98 8.05 6.3 9.37 6.62 9.69 7.94 11 8.26 11.33 9.57 12.64 9.9 12.97 11.21 14.28 11.54 14.61 12.86 15.92 13.18 16.25 14.49 17.56 14.82 17.89 16.13 19.2 16.46 19.53 17.77 20.84 18.1 21.17 19.41 22.48 19.74 22.81 21.05 24.12 21.38 24.45 22.69 25 22.83 25 22.54 24.68 22.46 24.35 21.15 23.04 20.82 22.71 19.51 21.4 19.18 21.07 17.87 19.76 17.54 19.43 16.23 18.12 15.9 17.79 14.59 16.48 14.26 16.15 12.95 14.84 12.62 14.51 11.31 13.2 10.98 12.87 9.67 11.56 9.35 11.23 8.03 9.92 7.71 9.6 6.39 8.28 6.07 7.96 4.75 6.64 4.43 6.32 3.12 5 2.79 4.68 1.48 3.36 1.15 3.08 0 2.54 0 2.81 0.07 3.13 1.38"/><polygon class="cls-2" points="4.94 1.21 5.27 2.52 6.58 2.85 6.91 4.16 8.22 4.48 8.54 5.8 9.86 6.12 10.18 7.43 11.5 7.76 11.82 9.07 13.13 9.4 13.46 10.71 14.77 11.04 15.1 12.35 16.41 12.68 16.74 13.99 18.05 14.32 18.38 15.63 19.69 15.96 20.02 17.27 21.33 17.6 21.66 18.91 22.97 19.24 23.3 20.55 24.61 20.88 24.94 22.19 25 22.2 25 21.29 24.84 20.65 23.53 20.32 23.2 19.01 21.89 18.68 21.56 17.37 20.25 17.04 19.92 15.73 18.61 15.4 18.28 14.09 16.97 13.76 16.64 12.45 15.33 12.12 15 10.81 13.69 10.48 13.36 9.17 12.05 8.85 11.73 7.53 10.41 7.21 10.09 5.89 8.77 5.57 8.45 4.25 7.13 3.93 6.81 2.62 5.5 2.29 5.17 0.97 3.85 0.65 3.69 0 3.41 0 3.63 0.88 4.94 1.21"/><polygon class="cls-2" points="1.82 1.06 2.14 2.37 3.46 2.7 3.78 4.01 5.09 4.34 5.42 5.65 6.73 5.98 7.06 7.29 8.37 7.62 8.7 8.93 10.01 9.25 10.34 10.57 11.65 10.89 11.98 12.21 13.29 12.53 13.62 13.85 14.93 14.17 15.26 15.48 16.57 15.81 16.9 17.12 18.21 17.45 18.54 18.76 19.85 19.09 20.18 20.4 21.49 20.73 21.82 22.04 23.13 22.37 23.45 23.68 24.77 24.01 25 24.95 25 23.8 25 23.78 23.68 23.45 23.36 22.14 22.05 21.81 21.72 20.5 20.41 20.17 20.08 18.86 18.77 18.53 18.44 17.22 17.13 16.89 16.8 15.58 15.49 15.25 15.16 13.94 13.85 13.62 13.52 12.3 12.21 11.98 11.88 10.66 10.57 10.34 10.24 9.03 8.93 8.7 8.6 7.38 7.29 7.06 6.96 5.75 5.65 5.42 5.32 4.11 4.01 3.78 3.69 2.47 2.37 2.14 2.04 0.83 0.73 0.5 0.61 0 0.32 0 0.5 0.73 1.82 1.06"/><polygon class="cls-2" points="2.31 0.56 2.63 1.87 3.95 2.2 4.27 3.51 5.59 3.83 5.91 5.15 7.22 5.48 7.55 6.79 8.87 7.12 9.19 8.43 10.5 8.75 10.83 10.07 12.14 10.39 12.47 11.71 13.78 12.03 14.11 13.34 15.42 13.67 15.75 14.98 17.06 15.31 17.39 16.62 18.7 16.95 19.03 18.26 20.34 18.59 20.67 19.9 21.98 20.23 22.31 21.54 23.62 21.87 23.95 23.18 25 23.44 25 23.16 24.18 22.95 23.85 21.64 22.54 21.31 22.21 20 20.9 19.67 20.57 18.36 19.26 18.03 18.93 16.72 17.62 16.39 17.29 15.08 15.98 14.76 15.65 13.44 14.34 13.11 14.01 11.8 12.7 11.48 12.37 10.16 11.06 9.84 10.73 8.53 9.42 8.2 9.09 6.88 7.78 6.56 7.46 5.25 6.14 4.92 5.82 3.61 4.5 3.28 4.18 1.97 2.86 1.64 2.54 0.33 1.23 0 1.23 0 0.94 0 0.99 0.23 2.31 0.56"/><polygon class="cls-2" points="22.69 24.44 22.37 23.13 21.05 22.8 20.73 21.49 19.41 21.16 19.09 19.85 17.77 19.52 17.45 18.21 16.14 17.89 15.81 16.57 14.5 16.25 14.17 14.93 12.86 14.61 12.53 13.29 11.22 12.97 10.89 11.66 9.58 11.33 9.25 10.02 7.94 9.69 7.61 8.38 6.3 8.05 5.97 6.74 4.66 6.41 4.33 5.1 3.02 4.77 2.69 3.46 1.38 3.13 1.05 1.82 0 1.56 0 1.84 0.82 2.05 1.15 3.36 2.46 3.69 2.79 5 4.1 5.33 4.43 6.64 5.74 6.97 6.07 8.28 7.38 8.61 7.71 9.92 9.02 10.25 9.35 11.56 10.66 11.89 10.99 13.2 12.3 13.52 12.63 14.84 13.94 15.16 14.27 16.48 15.58 16.8 15.91 18.11 17.22 18.44 17.55 19.75 18.86 20.08 19.18 21.39 20.5 21.72 20.82 23.03 22.14 23.36 22.46 24.67 23.77 25 24.06 25 24.01 24.77 22.69 24.44"/><polygon class="cls-2" points="23.18 23.94 22.86 22.63 21.55 22.3 21.22 20.99 19.91 20.66 19.58 19.35 18.27 19.02 17.94 17.71 16.63 17.39 16.3 16.07 14.99 15.74 14.66 14.43 13.35 14.1 13.02 12.79 11.71 12.47 11.38 11.15 10.07 10.83 9.74 9.52 8.43 9.19 8.1 7.88 6.79 7.55 6.46 6.24 5.15 5.91 4.82 4.6 3.51 4.27 3.19 2.96 1.87 2.63 1.54 1.32 0.23 0.99 0 0.05 0 1.21 0 1.22 1.32 1.55 1.64 2.86 2.96 3.19 3.28 4.5 4.59 4.83 4.92 6.14 6.23 6.47 6.56 7.78 7.87 8.11 8.2 9.42 9.51 9.75 9.84 11.06 11.15 11.38 11.48 12.7 12.79 13.02 13.12 14.34 14.43 14.66 14.76 15.98 16.07 16.3 16.4 17.61 17.71 17.94 18.04 19.25 19.35 19.58 19.68 20.89 20.99 21.22 21.32 22.53 22.63 22.86 22.95 24.17 24.27 24.5 24.39 25 24.68 25 24.5 24.27 23.18 23.94"/><polygon class="cls-2" points="20.06 23.79 19.73 22.48 18.42 22.16 18.1 20.84 16.78 20.52 16.45 19.2 15.14 18.88 14.82 17.57 13.51 17.24 13.18 15.93 11.87 15.6 11.54 14.29 10.23 13.96 9.9 12.65 8.59 12.32 8.26 11.01 6.95 10.68 6.62 9.37 5.31 9.04 4.98 7.73 3.67 7.4 3.34 6.09 2.03 5.76 1.7 4.45 0.39 4.12 0.06 2.81 0 2.79 0 3.71 0.16 4.35 1.47 4.68 1.8 5.99 3.11 6.32 3.44 7.63 4.75 7.96 5.08 9.27 6.39 9.6 6.72 10.91 8.03 11.24 8.36 12.55 9.67 12.88 10 14.19 11.31 14.52 11.64 15.83 12.95 16.16 13.27 17.47 14.59 17.8 14.92 19.11 16.23 19.43 16.55 20.75 17.87 21.07 18.19 22.39 19.51 22.71 19.83 24.02 21.14 24.35 21.31 25 21.59 25 21.37 24.12 20.06 23.79"/><polygon class="cls-2" points="21.86 23.62 20.55 23.29 20.23 21.98 18.91 21.66 18.59 20.34 17.27 20.02 16.95 18.7 15.63 18.38 15.31 17.07 14 16.74 13.67 15.43 12.36 15.1 12.03 13.79 10.72 13.46 10.39 12.15 9.08 11.82 8.75 10.51 7.44 10.18 7.11 8.87 5.8 8.54 5.47 7.23 4.16 6.9 3.83 5.59 2.52 5.26 2.19 3.95 0.88 3.62 0.55 2.31 0 2.17 0 2.46 0.33 2.54 0.65 3.85 1.96 4.18 2.29 5.49 3.6 5.82 3.93 7.13 5.24 7.46 5.57 8.77 6.88 9.1 7.21 10.41 8.52 10.74 8.85 12.05 10.16 12.38 10.49 13.69 11.8 14.02 12.13 15.33 13.44 15.65 13.77 16.97 15.08 17.29 15.41 18.61 16.72 18.93 17.04 20.25 18.36 20.57 18.68 21.89 20 22.21 20.32 23.52 21.64 23.85 21.92 25 22.45 25 22.19 24.93 21.86 23.62"/><polygon class="cls-2" points="18.74 23.47 17.43 23.15 17.1 21.84 15.79 21.51 15.46 20.2 14.15 19.87 13.83 18.56 12.51 18.23 12.19 16.92 10.88 16.59 10.55 15.28 9.23 14.95 8.91 13.64 7.6 13.31 7.27 12 5.96 11.67 5.63 10.36 4.32 10.03 3.99 8.72 2.68 8.39 2.35 7.08 1.04 6.75 0.71 5.44 0 5.26 0 5.55 0.48 5.67 0.81 6.98 2.12 7.31 2.45 8.62 3.76 8.95 4.09 10.26 5.4 10.59 5.73 11.9 7.04 12.23 7.37 13.54 8.68 13.87 9.01 15.18 10.32 15.51 10.64 16.82 11.96 17.15 12.28 18.46 13.6 18.79 13.92 20.1 15.23 20.43 15.56 21.74 16.87 22.07 17.2 23.38 18.51 23.7 18.84 25 19.93 25 19.07 24.79 18.74 23.47"/><polygon class="cls-2" points="19.56 24.28 19.23 22.97 17.92 22.65 17.6 21.33 16.28 21.01 15.96 19.7 14.64 19.37 14.32 18.05 13.01 17.73 12.68 16.41 11.37 16.09 11.04 14.78 9.73 14.45 9.4 13.14 8.09 12.81 7.76 11.5 6.45 11.17 6.12 9.86 4.81 9.53 4.48 8.22 3.17 7.89 2.84 6.58 1.53 6.25 1.2 4.94 0 4.64 0 4.93 0.97 5.17 1.3 6.48 2.61 6.81 2.94 8.12 4.25 8.45 4.58 9.76 5.89 10.09 6.22 11.4 7.53 11.73 7.86 13.04 9.17 13.37 9.5 14.68 10.81 15.01 11.13 16.32 12.45 16.65 12.78 17.96 14.09 18.29 14.41 19.6 15.73 19.93 16.05 21.24 17.36 21.56 17.69 22.88 19 23.2 19.33 24.52 20.64 24.84 20.68 25 20.97 25 20.88 24.61 19.56 24.28"/><polygon class="cls-2" points="16.44 24.14 16.11 22.83 14.8 22.5 14.47 21.19 13.16 20.86 12.83 19.55 11.52 19.22 11.19 17.91 9.88 17.58 9.55 16.27 8.24 15.94 7.92 14.63 6.6 14.3 6.28 12.99 4.96 12.66 4.64 11.35 3.33 11.02 3 9.71 1.69 9.38 1.36 8.07 0.05 7.75 0 7.56 0 8.02 1.13 8.3 1.46 9.61 2.77 9.94 3.1 11.25 4.41 11.58 4.74 12.89 6.05 13.22 6.38 14.53 7.69 14.86 8.02 16.17 9.33 16.5 9.65 17.81 10.97 18.14 11.29 19.45 12.61 19.78 12.93 21.09 14.24 21.42 14.57 22.73 15.88 23.06 16.21 24.37 17.52 24.69 17.6 25 17.89 25 17.75 24.47 16.44 24.14"/><polygon class="cls-2" points="16.93 23.64 16.6 22.33 15.29 22 14.96 20.69 13.65 20.36 13.32 19.05 12.01 18.72 11.69 17.41 10.37 17.08 10.05 15.77 8.73 15.44 8.41 14.13 7.09 13.8 6.77 12.49 5.46 12.16 5.13 10.85 3.82 10.52 3.49 9.21 2.18 8.88 1.85 7.57 0.54 7.25 0.21 5.93 0 5.88 0 6.24 0.31 7.47 1.62 7.8 1.95 9.11 3.26 9.44 3.59 10.75 4.9 11.08 5.23 12.39 6.54 12.72 6.87 14.03 8.18 14.36 8.51 15.67 9.82 16 10.14 17.31 11.46 17.64 11.78 18.95 13.1 19.28 13.42 20.59 14.74 20.92 15.06 22.23 16.37 22.56 16.7 23.87 18.01 24.2 18.21 25 18.5 25 18.24 23.97 16.93 23.64"/><polygon class="cls-2" points="13.81 23.49 13.48 22.18 12.17 21.85 11.84 20.54 10.53 20.21 10.2 18.9 8.89 18.57 8.56 17.26 7.25 16.93 6.92 15.62 5.61 15.29 5.29 13.98 3.97 13.65 3.65 12.34 2.33 12.01 2.01 10.7 0.7 10.38 0.37 9.06 0 8.97 0 9.26 0.14 9.29 0.47 10.61 1.78 10.93 2.1 12.24 3.42 12.57 3.74 13.88 5.06 14.21 5.38 15.52 6.7 15.85 7.02 17.16 8.33 17.49 8.66 18.8 9.97 19.13 10.3 20.44 11.61 20.77 11.94 22.08 13.25 22.41 13.58 23.72 14.89 24.05 15.13 25 15.42 25 15.12 23.82 13.81 23.49"/><polygon class="cls-2" points="15.94 24.63 15.61 23.32 14.3 22.99 13.97 21.68 12.66 21.35 12.33 20.04 11.02 19.71 10.69 18.4 9.38 18.07 9.05 16.76 7.74 16.43 7.42 15.12 6.1 14.79 5.78 13.48 4.46 13.15 4.14 11.84 2.83 11.52 2.5 10.2 1.19 9.88 0.86 8.56 0 8.35 0 8.64 0.63 8.79 0.96 10.11 2.27 10.43 2.6 11.74 3.91 12.07 4.24 13.38 5.55 13.71 5.88 15.02 7.19 15.35 7.51 16.66 8.82 16.99 9.15 18.3 10.46 18.63 10.79 19.94 12.1 20.27 12.43 21.58 13.74 21.91 14.07 23.22 15.38 23.55 15.71 24.86 16.27 25 17.26 25 17.25 24.96 15.94 24.63"/><polygon class="cls-2" points="12.82 24.48 12.49 23.17 11.18 22.84 10.85 21.53 9.54 21.2 9.21 19.89 7.9 19.57 7.57 18.25 6.26 17.93 5.93 16.61 4.62 16.29 4.29 14.97 2.98 14.65 2.65 13.33 1.34 13.01 1.01 11.7 0 11.44 0 11.73 0.79 11.92 1.11 13.24 2.42 13.56 2.75 14.88 4.06 15.2 4.39 16.52 5.7 16.84 6.03 18.15 7.34 18.48 7.67 19.79 8.98 20.12 9.31 21.43 10.62 21.76 10.95 23.07 12.26 23.4 12.59 24.71 13.74 25 14.18 25 14.13 24.81 12.82 24.48"/><polygon class="cls-2" points="13.31 23.98 12.98 22.67 11.67 22.34 11.34 21.03 10.03 20.7 9.7 19.39 8.39 19.06 8.06 17.75 6.75 17.42 6.42 16.11 5.11 15.78 4.79 14.47 3.47 14.14 3.15 12.83 1.83 12.51 1.51 11.19 0.19 10.87 0 10.09 0 11.11 1.28 11.42 1.6 12.74 2.92 13.06 3.24 14.38 4.55 14.7 4.88 16.02 6.19 16.34 6.52 17.65 7.83 17.98 8.16 19.29 9.47 19.62 9.8 20.93 11.11 21.26 11.44 22.57 12.75 22.9 13.08 24.21 14.39 24.54 14.51 25 14.79 25 14.62 24.31 13.31 23.98"/><polygon class="cls-2" points="10.19 23.83 9.86 22.52 8.55 22.19 8.22 20.88 6.91 20.56 6.58 19.24 5.27 18.92 4.94 17.6 3.63 17.27 3.3 15.96 1.99 15.64 1.66 14.33 0.35 14 0.02 12.69 0 12.68 0 13.74 0.12 14.23 1.43 14.55 1.76 15.87 3.07 16.19 3.4 17.51 4.71 17.83 5.04 19.15 6.35 19.47 6.68 20.79 7.99 21.11 8.32 22.43 9.63 22.75 9.96 24.06 11.27 24.39 11.42 25 11.71 25 11.5 24.16 10.19 23.83"/><polygon class="cls-2" points="11.99 23.66 10.68 23.33 10.35 22.02 9.04 21.7 8.71 20.38 7.4 20.05 7.07 18.74 5.76 18.42 5.43 17.1 4.12 16.77 3.79 15.46 2.48 15.14 2.15 13.82 0.84 13.5 0.52 12.19 0 12.06 0 12.34 0.29 12.41 0.61 13.73 1.93 14.05 2.25 15.37 3.56 15.69 3.89 17.01 5.2 17.33 5.53 18.65 6.84 18.97 7.17 20.28 8.48 20.61 8.81 21.93 10.12 22.25 10.45 23.56 11.76 23.89 12.04 25 12.43 25 12.32 24.97 11.99 23.66"/><polygon class="cls-2" points="8.87 23.51 7.56 23.18 7.23 21.88 5.92 21.55 5.59 20.23 4.28 19.91 3.95 18.59 2.64 18.27 2.31 16.95 1 16.63 0.67 15.32 0 15.15 0 15.44 0.44 15.54 0.77 16.86 2.08 17.18 2.41 18.5 3.72 18.82 4.05 20.14 5.36 20.46 5.69 21.78 7 22.1 7.33 23.42 8.64 23.74 8.95 25 9.9 25 9.2 24.82 8.87 23.51"/><polygon class="cls-2" points="9.69 24.32 9.36 23.01 8.05 22.68 7.72 21.37 6.41 21.05 6.08 19.73 4.77 19.41 4.44 18.09 3.13 17.77 2.8 16.45 1.49 16.13 1.16 14.82 0 14.53 0 14.81 0.93 15.04 1.26 16.36 2.57 16.69 2.9 18 4.21 18.32 4.54 19.64 5.85 19.96 6.18 21.27 7.49 21.6 7.82 22.92 9.13 23.24 9.46 24.56 10.77 24.88 10.8 25 11.09 25 11 24.65 9.69 24.32"/><polygon class="cls-2" points="6.56 24.18 6.24 22.86 4.93 22.54 4.6 21.23 3.29 20.9 2.96 19.59 1.65 19.26 1.32 17.95 0.01 17.62 0 17.59 0 17.91 1.09 18.18 1.42 19.49 2.73 19.82 3.06 21.13 4.37 21.45 4.7 22.77 6.01 23.09 6.33 24.41 7.65 24.73 7.71 25 8 25 7.88 24.5 6.56 24.18"/><polygon class="cls-2" points="7.06 23.68 6.73 22.36 5.42 22.04 5.09 20.73 3.78 20.4 3.45 19.09 2.14 18.76 1.81 17.45 0.5 17.12 0.17 15.81 0 15.77 0 16.27 0.27 17.35 1.58 17.68 1.91 18.99 3.22 19.32 3.55 20.63 4.86 20.95 5.19 22.27 6.5 22.59 6.83 23.91 8.14 24.23 8.33 25 8.62 25 8.37 24 7.06 23.68"/><polygon class="cls-2" points="3.94 23.53 3.61 22.22 2.3 21.89 1.97 20.58 0.66 20.25 0.33 18.94 0 18.86 0 19.14 0.1 19.17 0.43 20.48 1.74 20.81 2.06 22.12 3.38 22.45 3.71 23.76 5.02 24.09 5.25 25 5.53 25 5.25 23.86 3.94 23.53"/><polygon class="cls-2" points="6.07 24.67 5.74 23.36 4.42 23.03 4.1 21.72 2.79 21.39 2.46 20.08 1.15 19.75 0.82 18.44 0 18.23 0 18.52 0.59 18.67 0.92 19.98 2.23 20.31 2.56 21.62 3.87 21.95 4.2 23.26 5.51 23.59 5.84 24.9 6.25 25 7.38 25 7.38 24.99 6.07 24.67"/><polygon class="cls-2" points="2.94 24.52 2.62 23.21 1.3 22.88 0.98 21.57 0 21.33 0 21.61 0.75 21.8 1.07 23.11 2.39 23.44 2.71 24.75 3.71 25 4.29 25 4.25 24.85 2.94 24.52"/><polygon class="cls-2" points="3.43 24.02 3.11 22.71 1.79 22.38 1.47 21.07 0.16 20.74 0 20.12 0 20.99 1.24 21.3 1.56 22.61 2.88 22.94 3.2 24.25 4.52 24.58 4.62 25 4.91 25 4.75 24.35 3.43 24.02"/><polygon class="cls-2" points="0.31 23.87 0 22.62 0 23.77 0.08 24.1 1.4 24.43 1.54 25 1.82 25 1.63 24.2 0.31 23.87"/><polygon class="cls-2" points="0.8 23.37 0.47 22.06 0 21.94 0 22.23 0.25 22.29 0.57 23.6 1.89 23.93 2.15 25 2.44 25 2.12 23.7 0.8 23.37"/><polygon class="cls-2" points="0 24.41 0 24.7 0.89 24.92 0.91 25 1.2 25 1.13 24.69 0 24.41"/></svg>