<svg id="Layer_1" data-name="Layer 1" xmlns="http://www.w3.org/2000/svg" viewBox="0 0 596.26 153.67"><defs><style>.cls-1{fill:#e15c26;}.cls-2{fill:#f0eeed;}.cls-3{fill:#00b2b6;}.cls-4{fill:#282827;}</style></defs><title>footer 2</title><path class="cls-1" d="M-1,813.38v-.23c66.93-51.66,176.69-90.4,294.92-98.95-59.88,18.88-114,45.47-161.78,69.37C81,783.84,32.57,792-1,813.38Z" transform="translate(0.98 -688.63)"/><path class="cls-2" d="M132.16,783.57c70.79-36,159.8-78.08,253.87-91,91.3-12.9,187.65,3.41,209.24,84.28v30.53c-97.53-84.66-309.9-62.84-452.33-23.8Q137.53,783.53,132.16,783.57Z" transform="translate(0.98 -688.63)"/><path class="cls-3" d="M-1,842.31V832.18C84.54,807.67,179.61,760,297.38,737.82c112.73-22.14,248.16-18.72,297.89,59v45.45Z" transform="translate(0.98 -688.63)"/><path class="cls-4" d="M-1,840.31v-27c55.32-34.93,147.29-34.49,232.1-22.17,86.74,12.32,166.32,36.53,241.39,49.14Z" transform="translate(0.98 -688.63)"/></svg>