<svg id="Layer_1" data-name="Layer 1" xmlns="http://www.w3.org/2000/svg" xmlns:xlink="http://www.w3.org/1999/xlink" viewBox="0 0 592.56 249.75"><defs><style>.cls-1{fill:url(#linear-gradient);}.cls-2{fill:url(#linear-gradient-2);}.cls-3{fill:url(#linear-gradient-3);}.cls-4{fill:url(#linear-gradient-4);}.cls-5{fill:url(#linear-gradient-5);}.cls-6{fill:url(#linear-gradient-6);}.cls-7{fill:url(#linear-gradient-7);}.cls-8{fill:url(#linear-gradient-8);}</style><linearGradient id="linear-gradient" x1="100.47" y1="179.42" x2="100.47" y2="52.72" gradientUnits="userSpaceOnUse"><stop offset="0" stop-color="#141213"/><stop offset="1" stop-color="#2b2b2b"/></linearGradient><linearGradient id="linear-gradient-2" x1="296.44" y1="262.79" x2="296.44" y2="156.99" xlink:href="#linear-gradient"/><linearGradient id="linear-gradient-3" x1="494.18" y1="226.44" x2="552.56" y2="189.51" gradientUnits="userSpaceOnUse"><stop offset="0" stop-color="#2d2f77"/><stop offset="1" stop-color="#20428b"/></linearGradient><linearGradient id="linear-gradient-4" x1="606.78" y1="213.03" x2="540.22" y2="213.03" xlink:href="#linear-gradient"/><linearGradient id="linear-gradient-5" x1="426.52" y1="173.54" x2="426.52" y2="249.28" gradientUnits="userSpaceOnUse"><stop offset="0" stop-color="#3673b8"/><stop offset="1" stop-color="#20428b"/></linearGradient><linearGradient id="linear-gradient-6" x1="0.32" y1="31.58" x2="74.81" y2="31.58" xlink:href="#linear-gradient-5"/><linearGradient id="linear-gradient-7" x1="-9.6" y1="148.2" x2="78.25" y2="236.05" xlink:href="#linear-gradient-5"/><linearGradient id="linear-gradient-8" x1="212.26" y1="176.12" x2="213.81" y2="248.89" xlink:href="#linear-gradient-5"/></defs><title>footer 1</title><polygon id="_Path_" data-name="&lt;Path&gt;" class="cls-1" points="200.94 248.77 0 248.77 0 0.98 200.94 248.77"/><polygon id="_Path_2" data-name="&lt;Path&gt;" class="cls-2" points="592.56 249.75 0.32 249.75 0.32 149.64 592.56 249.75"/><polygon id="_Path_3" data-name="&lt;Path&gt;" class="cls-3" points="592.56 157.08 462.92 199.88 540.98 227.57 592.57 210.53 592.56 157.08"/><polygon id="_Path_4" data-name="&lt;Path&gt;" class="cls-4" points="592.56 176.3 462.92 219.1 540.98 246.78 592.57 249.75 592.56 176.3"/><polygon class="cls-5" points="300.97 142.44 260.48 181.86 452.28 249.75 592.56 249.75 592.56 246.03 300.97 142.44"/><polygon class="cls-6" points="32.4 0 0.32 0 0.32 23.67 74.81 63.16 32.4 0"/><polygon class="cls-7" points="0.32 104.99 0.32 191.88 38.82 249.75 94.77 249.75 0.32 104.99"/><polygon class="cls-8" points="222.03 175.79 222.03 175.79 138.59 153.41 223.12 249.75 287.01 249.75 222.03 175.79"/></svg>