<svg xmlns="http://www.w3.org/2000/svg" viewBox="0 0 595.28 207.88"><defs><style>.cls-1{isolation:isolate;}.cls-2{opacity:0.7;}.cls-2,.cls-5{mix-blend-mode:multiply;}.cls-3,.cls-4{fill:#dc1a57;}.cls-4{opacity:0.3;}.cls-6{fill:#bc1c80;}.cls-7{opacity:0.4;}</style></defs><title>footer 3</title><g class="cls-1"><g id="Layer_1" data-name="Layer 1"><g class="cls-2"><polygon class="cls-3" points="416.89 207.88 107.58 207.88 262.2 110.28 416.89 207.88"/><polygon class="cls-4" points="340.97 207.88 0 207.88 0 106.12 89.84 49.42 340.97 207.88"/><g class="cls-5"><polygon class="cls-6" points="233.86 207.88 0 207.88 0 171.6 88.19 115.98 233.86 207.88"/></g><g class="cls-7"><polygon class="cls-3" points="468.62 207.88 123.01 207.88 147.16 192.61 234.12 137.75 295.77 98.89 468.62 207.88"/><polygon class="cls-4" points="345.28 207.88 0 207.88 0 9.96 15.77 0 234.12 137.75 345.28 207.88"/><g class="cls-5"><polygon class="cls-6" points="171.33 207.88 0 207.88 0 116.38 13.13 108.06 147.16 192.61 171.33 207.88"/></g></g></g><g class="cls-5"><polygon class="cls-3" points="293.89 207.27 517.51 207.27 405.72 109.96 293.89 207.27"/><polygon class="cls-4" points="348.78 207.27 595.28 207.27 595.28 105.81 530.33 49.28 348.78 207.27"/><g class="cls-5"><polygon class="cls-6" points="426.19 207.27 595.28 207.27 595.28 171.09 531.53 115.64 426.19 207.27"/></g><g class="cls-7"><polygon class="cls-3" points="256.48 207.27 506.35 207.27 488.88 192.06 426.02 137.34 381.46 98.56 256.48 207.27"/><polygon class="cls-4" points="345.65 207.27 595.28 207.27 595.28 9.91 583.88 0 426.02 137.34 345.65 207.27"/><g class="cls-5"><polygon class="cls-6" points="471.4 207.27 595.28 207.27 595.28 116.03 585.77 107.77 488.88 192.06 471.4 207.27"/></g></g></g></g></g></svg>