<svg xmlns="http://www.w3.org/2000/svg" viewBox="0 0 595.28 297.14"><defs><style>.cls-1{isolation:isolate;}.cls-2{mix-blend-mode:multiply;}.cls-3,.cls-4{fill:#dc1f2d;}.cls-4{opacity:0.3;}.cls-5{fill:#bc1e60;}.cls-6{opacity:0.4;}</style></defs><title>header 3</title><g class="cls-1"><g id="Layer_1" data-name="Layer 1"><g class="cls-2"><polygon class="cls-3" points="529.56 0 136.66 0 333.06 139.5 529.56 0"/><polygon class="cls-4" points="433.13 0 0 0 0 145.46 114.12 226.49 433.13 0"/><g class="cls-2"><polygon class="cls-5" points="297.07 0 0 0 0 51.87 112.02 131.37 297.07 0"/></g><g class="cls-6"><polygon class="cls-3" points="595.28 0 156.25 0 186.94 21.81 297.39 100.26 375.71 155.84 595.28 0"/><polygon class="cls-4" points="438.61 0 0 0 0 282.94 20.03 297.14 297.39 100.26 438.61 0"/><g class="cls-2"><polygon class="cls-5" points="217.64 0 0 0 0 130.81 16.68 142.65 186.94 21.81 217.64 0"/></g></g></g></g></g></svg>