<svg id="Layer_1" data-name="Layer 1" xmlns="http://www.w3.org/2000/svg" viewBox="0 0 595.28 232.86"><defs><style>.cls-1{fill:#e15c26;}.cls-2{fill:#f0eeed;}.cls-3{fill:#00b2b6;}.cls-4{fill:#282827;}</style></defs><title>header2</title><path class="cls-1" d="M595.28,98.82v.85c-98.32-95-196.64-38.28-295,22,50-45.12,100-88.15,149.94-102.44C498.6,20.4,546.94,38.6,595.28,98.82Z"/><path class="cls-2" d="M450.26,19.23c-75,11.25-150.08,120-225.13,163.92C150.09,237.19,75,226.3,0,232.86v-112C146.71,258.17,293.42,43.42,440.13,19.18,443.51,19.13,446.88,19.14,450.26,19.23Z"/><path class="cls-3" d="M595.28,0V37.15C496.06-9.73,396.85,19.38,297.64,101.29,198.42,181.25,99.21,239.39,0,166.81V0Z"/><path class="cls-4" d="M595.28,0V99C516.49-3.59,437.7,19.29,358.92,28.54,280.13,42.35,201.34,42.53,122.56,0Z"/></svg>